GRF
version=1
nRows=15
nColumns=19
inDegrees=no
endheader
time	1_ground_force_vx	1_ground_force_vy	1_ground_force_vz	1_ground_force_px	1_ground_force_py	1_ground_force_pz	1_ground_torque_x	1_ground_torque_y	1_ground_torque_z	2_ground_force_vx	2_ground_force_vy	2_ground_force_vz	2_ground_force_px	2_ground_force_py	2_ground_force_pz	2_ground_torque_x	2_ground_torque_y	2_ground_torque_z
      2.40800000	     -0.89851761	      0.14792640	     -0.00182145	     14.23847811	      0.00000000	     -2.66439774	      0.00000000	      1.23010061	     -0.00000000	     -0.00000000	      0.00000000	      0.00000000	     -0.00000000	      0.00000000	      0.00000000	     -0.00000000	     -0.00000000	     -0.00000000
      2.40900000	     -0.43758422	      0.70637575	      0.09539910	     14.38223236	      0.00000000	     -2.69828181	     -0.00000000	      1.11588420	     -0.00000000	     -0.00000000	      0.00000000	      0.00000000	     -0.00000000	      0.00000000	      0.00000000	     -0.00000000	     -0.00000000	     -0.00000000
      2.41000000	     -0.33000848	      1.09304448	     -0.17392296	      3.73499384	      0.00000000	     -0.34297363	     -0.00000000	      0.40290779	      0.00000000	     -0.00000000	      0.00000000	      0.00000000	     -0.00000000	      0.00000000	      0.00000000	     -0.00000000	     -0.00000000	     -0.00000000
      2.41100000	     -0.69329495	      0.78214458	     -0.28042116	      0.09177873	      0.00000000	      1.02175231	     -0.00000000	      0.88155106	      0.00000000	     -0.00000000	      0.00000000	      0.00000000	     -0.00000000	      0.00000000	      0.00000000	     -0.00000000	     -0.00000000	     -0.00000000
      2.41200000	     -0.81461924	      0.76156944	      0.08860371	     -0.13116015	      0.00000000	      1.70185498	     -0.00000000	      1.76281021	     -0.00000000	     -0.00000000	      0.00000000	      0.00000000	     -0.00000000	      0.00000000	      0.00000000	     -0.00000000	     -0.00000000	     -0.00000000
      2.41300000	     -0.51473790	      1.33988315	      0.37394390	      0.02568134	      0.00000000	      1.05554141	     -0.00000000	      1.01841405	     -0.00000000	     -0.00000000	      0.00000000	      0.00000000	     -0.00000000	      0.00000000	      0.00000000	     -0.00000000	     -0.00000000	     -0.00000000
      2.41400000	     -0.41046259	      1.24714188	      0.38077791	      0.17171167	      0.00000000	      0.36562111	     -0.00000000	      0.18478251	     -0.00000000	     -0.00000000	      0.00000000	      0.00000000	     -0.00000000	      0.00000000	      0.00000000	     -0.00000000	     -0.00000000	     -0.00000000
      2.41500000	     -0.55249582	      0.17962241	      0.19517790	      0.07065774	      0.00000000	      0.25461265	     -0.00000000	      0.05691273	     -0.00000000	     -0.00000000	      0.00000000	      0.00000000	     -0.00000000	      0.00000000	      0.00000000	     -0.00000000	     -0.00000000	     -0.00000000
      2.41600000	     -0.54324259	     -0.29960797	      0.24143861	     -0.01160623	      0.00000000	      0.33926674	      0.00000000	      0.08263560	     -0.00000000	     -0.00000000	      0.00000000	      0.00000000	     -0.00000000	      0.00000000	      0.00000000	     -0.00000000	     -0.00000000	     -0.00000000
      2.41700000	     -0.30317972	      0.22062516	      0.64931912	      0.08175158	      0.00000000	      0.29975668	      0.00000000	      0.02336424	     -0.00000000	     -0.00000000	      0.00000000	      0.00000000	     -0.00000000	      0.00000000	      0.00000000	     -0.00000000	     -0.00000000	     -0.00000000
      2.41800000	     -0.28585332	      0.60909631	      0.61175303	      0.19714377	      0.00000000	      0.19727087	      0.00000000	     -0.00773016	     -0.00000000	     -0.00000000	      0.00000000	      0.00000000	     -0.00000000	      0.00000000	      0.00000000	     -0.00000000	     -0.00000000	     -0.00000000
      2.41900000	     -0.49365271	      0.27476494	      0.08718370	      0.11176374	      0.00000000	      0.35227707	      0.00000000	      0.14062539	     -0.00000000	     -0.00000000	      0.00000000	      0.00000000	     -0.00000000	      0.00000000	      0.00000000	     -0.00000000	     -0.00000000	     -0.00000000
      2.42000000	     -0.26619623	     -0.08073834	     -0.08842245	     -0.00524879	      0.00000000	      0.56405452	      0.00000000	      0.25714311	     -0.00000000	     -0.00000000	      0.00000000	      0.00000000	     -0.00000000	      0.00000000	      0.00000000	     -0.00000000	     -0.00000000	     -0.00000000
      2.42100000	      0.27334118	      0.09453839	      0.01927996	      0.11155548	      0.00000000	      0.36497477	     -0.00000000	      0.13534922	     -0.00000000	     -0.00000000	      0.00000000	      0.00000000	     -0.00000000	      0.00000000	      0.00000000	     -0.00000000	     -0.00000000	     -0.00000000
      2.42200000	      0.18104367	     -0.13746635	      0.19630821	      0.24710356	      0.00000000	      0.13061515	      0.00000000	     -0.01684022	      0.00000000	     -0.00000000	      0.00000000	      0.00000000	     -0.00000000	      0.00000000	      0.00000000	     -0.00000000	     -0.00000000	     -0.00000000
